<?xml version="1.0" encoding="UTF-8" standalone="no"?>
<!-- Created with Inkscape (http://www.inkscape.org/) -->

<svg
   xmlns:dc="http://purl.org/dc/elements/1.1/"
   xmlns:cc="http://creativecommons.org/ns#"
   xmlns:rdf="http://www.w3.org/1999/02/22-rdf-syntax-ns#"
   xmlns:svg="http://www.w3.org/2000/svg"
   xmlns="http://www.w3.org/2000/svg"
   xmlns:sodipodi="http://sodipodi.sourceforge.net/DTD/sodipodi-0.dtd"
   xmlns:inkscape="http://www.inkscape.org/namespaces/inkscape"
   width="210mm"
   height="297mm"
   viewBox="0 0 210 297"
   version="1.1"
   id="svg8"
   inkscape:version="0.92.1 r15371"
   sodipodi:docname="spoink.svg"
   inkscape:export-filename="C:\Users\Yaiza\Documents\Proyecto DAM\Proyecto-DAM\spoink.png"
   inkscape:export-xdpi="96"
   inkscape:export-ydpi="96">
  <defs
     id="defs2" />
  <sodipodi:namedview
     id="base"
     pagecolor="#ffffff"
     bordercolor="#666666"
     borderopacity="1.0"
     inkscape:pageopacity="0.0"
     inkscape:pageshadow="2"
     inkscape:zoom="1.4142136"
     inkscape:cx="427.21864"
     inkscape:cy="671.6633"
     inkscape:document-units="mm"
     inkscape:current-layer="layer1"
     showgrid="false"
     inkscape:window-width="1366"
     inkscape:window-height="705"
     inkscape:window-x="-8"
     inkscape:window-y="-8"
     inkscape:window-maximized="1" />
  <metadata
     id="metadata5">
    <rdf:RDF>
      <cc:Work
         rdf:about="">
        <dc:format>image/svg+xml</dc:format>
        <dc:type
           rdf:resource="http://purl.org/dc/dcmitype/StillImage" />
        <dc:title></dc:title>
      </cc:Work>
    </rdf:RDF>
  </metadata>
  <g
     inkscape:label="Capa 1"
     inkscape:groupmode="layer"
     id="layer1">
    <g
       id="g3737"
       transform="translate(50.270833,-1.3229167)">
      <path
         style="fill:#fefefe;stroke-width:0.35277778"
         d="M 72.697426,127.66668 V 88.861122 h 20.284721 20.284723 v 38.805558 38.80556 H 92.982147 72.697426 Z"
         id="path3753"
         inkscape:connector-curvature="0" />
      <path
         style="fill:#f5c7d5;stroke-width:0.35277778"
         d="m 92.805759,166.15436 c 0,-0.17483 0.959829,-1.14938 2.132954,-2.16568 1.173124,-1.01629 2.367826,-2.302 2.654892,-2.85712 0.287066,-0.55513 0.478175,-1.00693 0.424685,-1.00401 -0.05349,0.003 -0.732254,0.23408 -1.508365,0.51368 -2.045012,0.73674 -5.682783,0.66661 -7.468065,-0.14397 -1.859754,-0.8444 -2.358498,-1.77041 -2.145793,-3.98408 0.123477,-1.28506 0.03795,-1.79197 -0.325884,-1.93159 -0.753356,-0.28909 -1.525535,-2.038 -1.525535,-3.45519 0,-1.43769 0.638649,-2.86222 1.723253,-3.84378 l 0.737154,-0.66711 -1.671176,-0.77958 c -2.555864,-1.19227 -5.120856,-3.41169 -6.732963,-5.82584 -1.503497,-2.2515 -2.875712,-5.98205 -2.875712,-7.818 0,-0.57459 -0.384356,-1.55005 -0.854124,-2.1677 -1.512532,-1.98866 -2.673654,-4.68506 -2.673654,-6.20887 0,-1.8206 1.015578,-2.47595 2.847366,-1.83738 1.593533,0.55551 1.576925,0.56433 2.075985,-1.10243 0.246907,-0.82462 0.98641,-2.56691 1.643341,-3.87175 1.024392,-2.03473 1.196058,-2.73778 1.205936,-4.93889 0.0069,-1.52769 0.26881,-3.31112 0.647211,-4.40632 0.349632,-1.01193 0.509719,-1.96585 0.355749,-2.11982 -0.153971,-0.15397 -0.537491,-1.28524 -0.852266,-2.51393 -1.346347,-5.255302 1.105089,-10.427973 6.240912,-13.168678 1.311143,-0.699684 2.047626,-0.818811 5.062154,-0.818811 3.014529,0 3.751011,0.119127 5.062154,0.818811 5.133792,2.739619 7.571382,7.878927 6.245172,13.167038 -0.55554,2.21514 -0.55055,2.28941 0.2928,4.36492 0.47188,1.16129 1.08949,3.22244 1.37248,4.58034 0.28298,1.35789 0.98486,3.26312 1.55973,4.23384 0.57487,0.97072 1.43905,2.74505 1.92041,3.94295 0.68662,1.7087 0.98472,2.10871 1.38345,1.85643 0.27954,-0.17687 1.02759,-0.32401 1.66234,-0.32698 0.8857,-0.004 1.2458,0.19587 1.54844,0.8601 0.52982,1.16282 -0.13084,4.56687 -1.47523,7.60116 -0.55879,1.26118 -1.26784,3.32102 -1.57568,4.57742 -0.30783,1.25639 -0.98006,3.00264 -1.49384,3.88056 -1.14385,1.95453 -4.03319,5.05851 -5.62379,6.04155 -1.1767,0.72725 -1.61398,2.12213 -0.81923,2.61331 0.1968,0.12163 0.67305,0.83905 1.05834,1.59427 0.92177,1.80683 0.89456,4.31139 -0.0689,6.34012 -0.41465,0.87312 -0.7198,1.79421 -0.67812,2.04686 0.0417,0.25265 -0.17037,1.30612 -0.47123,2.34106 -0.97986,3.37061 -5.026147,6.90097 -7.909464,6.90097 -0.609338,0 -1.107887,-0.14305 -1.107887,-0.31788 z m 2.096113,-8.88987 c 0.712815,-0.21356 1.683733,-0.68864 2.157596,-1.05573 0.734653,-0.56913 0.783618,-0.72128 0.332402,-1.03293 -0.545717,-0.37691 -0.775426,-0.35843 -4.497917,0.36184 -2.258258,0.43695 -2.799493,1.02816 -1.5875,1.73409 0.811556,0.47268 2.001505,0.47028 3.595419,-0.007 z m -1.004262,-6.65177 c 1.122936,-0.0107 1.805092,-0.21888 2.220091,-0.67745 0.548599,-0.6062 0.550774,-0.68051 0.02582,-0.88194 -1.034259,-0.39689 -4.041223,-0.23033 -5.294334,0.29326 -2.203622,0.92073 -2.110696,2.54412 0.100466,1.75511 0.729814,-0.26042 2.056393,-0.48046 2.947953,-0.48898 z m 1.730371,-28.06132 c 0,-0.29104 -0.238125,-0.52917 -0.529167,-0.52917 -0.291042,0 -0.529167,0.23813 -0.529167,0.52917 0,0.29104 0.238125,0.52917 0.529167,0.52917 0.291042,0 0.529167,-0.23813 0.529167,-0.52917 z m -11.641667,-0.88194 c 0,-0.19403 -0.15875,-0.35278 -0.352777,-0.35278 -0.194028,0 -0.352778,0.15875 -0.352778,0.35278 0,0.19402 0.15875,0.35277 0.352778,0.35277 0.194027,0 0.352777,-0.15875 0.352777,-0.35277 z m 6.269155,-24.275525 c 0.0768,-0.230408 -0.111712,-0.418924 -0.418923,-0.418924 -0.307211,0 -0.558565,0.251354 -0.558565,0.558565 0,0.62298 0.759445,0.514488 0.977488,-0.139641 z m -0.950351,-1.45012 c 1.07723,-1.077231 1.282811,-2.072818 0.666006,-3.225329 -0.27564,-0.51504 -0.743731,-0.682364 -1.908918,-0.682364 -1.297431,0 -1.692422,0.176714 -2.47571,1.107599 -1.153375,1.370708 -1.086628,2.74756 0.163707,3.376943 1.397677,0.703551 2.444357,0.533709 3.554915,-0.576849 z"
         id="path3751"
         inkscape:connector-curvature="0" />
      <path
         style="fill:#eb85a6;stroke-width:0.35277778"
         d="m 92.805759,166.16231 c 0,-0.17046 0.867841,-1.05134 1.928536,-1.95752 1.882761,-1.60849 3.583364,-3.62713 3.29696,-3.91354 -0.07873,-0.0787 -0.915026,0.0892 -1.858441,0.37309 -3.591992,1.08103 -7.09142,0.48543 -8.633894,-1.46949 -0.64632,-0.81914 -0.765421,-1.31511 -0.622645,-2.59282 0.153582,-1.37442 0.04334,-1.73166 -0.84754,-2.74631 -1.48536,-1.69173 -1.432018,-3.72836 0.152001,-5.80353 l 1.176088,-1.54076 -1.994634,-0.96892 c -4.59657,-2.23284 -8.361804,-7.59028 -9.068122,-12.90276 -0.121856,-0.91652 -0.66034,-2.27417 -1.238378,-3.12224 -1.51345,-2.22046 -2.381782,-4.32986 -2.390516,-5.80717 -0.01021,-1.7276 0.83048,-2.22234 2.851558,-1.67812 0.794886,0.21404 1.480431,0.33904 1.523434,0.27778 0.043,-0.0613 0.367735,-0.90513 0.721628,-1.87527 0.353892,-0.97013 1.075054,-2.63701 1.602581,-3.70416 0.756403,-1.53015 0.996796,-2.6114 1.137284,-5.11528 0.09798,-1.74625 0.410431,-3.73063 0.694338,-4.40972 0.465397,-1.11322 0.454635,-1.37337 -0.109355,-2.64363 -1.959495,-4.4133 -0.509754,-9.924439 3.475363,-13.211475 3.998595,-3.298154 10.645023,-3.298154 14.643618,0 3.832847,3.161436 5.394347,8.664525 3.648047,12.856495 -0.38533,0.92497 -0.33895,1.28131 0.3681,2.82783 0.44494,0.97322 1.07753,2.87822 1.40575,4.23333 0.32823,1.35511 1.44683,4.21009 2.48578,6.34439 1.03896,2.13431 1.88704,4.09598 1.88462,4.35927 -0.003,0.32321 0.19616,0.3917 0.61298,0.21083 0.33955,-0.14734 1.13073,-0.34014 1.7582,-0.42845 0.98669,-0.13887 1.19051,-0.0299 1.50847,0.8064 0.47495,1.2492 -0.0271,4.03532 -1.25556,6.96754 -0.5059,1.20754 -1.20035,3.2274 -1.54321,4.48858 -1.20156,4.41975 -3.66722,8.04017 -7.09214,10.41364 -1.486,1.02979 -1.83429,2.19352 -0.89086,2.97651 0.28084,0.23307 0.77907,1.12672 1.10719,1.98589 0.69321,1.81515 0.50697,4.65816 -0.39536,6.03529 -0.31028,0.47354 -0.61981,1.54421 -0.68786,2.37925 -0.2581,3.16744 -2.784751,6.547 -5.979559,7.99808 -1.508645,0.68523 -3.374452,0.8826 -3.374452,0.35697 z m 2.17663,-8.87305 c 0.712078,-0.19778 1.664578,-0.67304 2.116667,-1.05613 0.754327,-0.63921 0.773614,-0.73426 0.234333,-1.15491 -0.487547,-0.38029 -1.103494,-0.33656 -3.615972,0.25668 -3.012857,0.7114 -3.644178,1.21858 -2.410964,1.93686 0.794912,0.46299 2.050476,0.46897 3.675936,0.0175 z m -0.545475,-6.69202 c 1.122338,0 1.611146,-0.17214 1.871798,-0.65918 0.501979,-0.93795 0.175623,-1.10471 -2.161969,-1.10471 -2.241317,0 -4.404988,0.71137 -4.728593,1.55467 -0.384081,1.0009 0.170332,1.21122 1.855739,0.70399 0.904202,-0.27213 2.327563,-0.49477 3.163025,-0.49477 z m 6.404236,-22.06862 c 1.75443,-1.22885 0.39698,-2.85608 -2.10286,-2.52078 -2.152786,0.28875 -3.088903,1.53913 -1.98142,2.64662 0.602686,0.60268 3.156505,0.524 4.08428,-0.12584 z m -19.243749,-2.07136 c 1.13651,-1.13651 1.165221,-1.22129 0.47625,-1.40629 -2.036858,-0.54695 -4.084559,0.0361 -4.084559,1.1631 0,0.59923 1.082449,1.37513 1.993195,1.42873 0.223132,0.0131 0.949933,-0.52036 1.615114,-1.18554 z m 14.03058,-3.90586 c 0,-0.29104 -0.238125,-0.52917 -0.529167,-0.52917 -0.291042,0 -0.529167,0.23813 -0.529167,0.52917 0,0.29104 0.238125,0.52917 0.529167,0.52917 0.291042,0 0.529167,-0.23813 0.529167,-0.52917 z m -11.641667,-0.70555 c 0,-0.29105 -0.15875,-0.52917 -0.352777,-0.52917 -0.194028,0 -0.352778,0.23812 -0.352778,0.52917 0,0.29104 0.15875,0.52916 0.352778,0.52916 0.194027,0 0.352777,-0.23812 0.352777,-0.52916 z m 10.583333,-11.46348 c 0.791909,-0.22258 1.450245,-0.72795 1.835676,-1.40914 0.694042,-1.22663 0.688243,-1.23155 -0.639447,-0.54274 -3.888704,2.01749 -9.191899,0.003 -11.120284,-4.22353 -0.718688,-1.5753 -0.86479,-4.773242 -0.293006,-6.413461 0.352366,-1.010799 0.43607,-1.045737 2.204861,-0.920311 2.414055,0.171183 3.460561,-0.600904 3.749533,-2.766315 0.197246,-1.478061 0.259271,-1.546038 1.505234,-1.649679 3.199641,-0.266149 6.524133,1.682184 7.895236,4.627038 1.00455,2.157564 1.12954,4.910878 0.31185,6.869468 -0.357959,0.85742 -0.394606,1.15889 -0.105832,0.87062 0.242952,-0.24254 0.720022,-0.44098 1.060152,-0.44098 0.41412,0 0.73979,-0.43703 0.98581,-1.32291 1.45933,-5.254794 -1.68353,-11.118141 -6.860616,-12.799216 -2.105745,-0.683766 -5.441221,-0.524677 -7.491464,0.357315 -2.188279,0.941372 -4.40462,3.173201 -5.436546,5.474538 -0.962427,2.146346 -1.055017,5.994603 -0.193096,8.025553 2.096798,4.94071 7.585356,7.67094 12.591939,6.26375 z M 90.689092,97.336197 c 0,-0.631149 -0.7838,-0.786909 -1.310317,-0.260392 -0.737066,0.737066 -0.278337,1.43016 0.626171,0.946082 0.37628,-0.20138 0.684146,-0.50994 0.684146,-0.68569 z"
         id="path3749"
         inkscape:connector-curvature="0" />
      <path
         style="fill:#abb0b2;stroke-width:0.35277778"
         d="m 92.805759,166.16231 c 0,-0.17046 0.867841,-1.05134 1.928536,-1.95752 1.882761,-1.60849 3.583364,-3.62713 3.29696,-3.91354 -0.07873,-0.0787 -0.915026,0.0892 -1.858441,0.37309 -3.591992,1.08103 -7.09142,0.48543 -8.633894,-1.46949 -0.64632,-0.81914 -0.765421,-1.31511 -0.622645,-2.59282 0.153582,-1.37442 0.04334,-1.73166 -0.84754,-2.74631 -1.48536,-1.69173 -1.432018,-3.72836 0.152001,-5.80353 l 1.176088,-1.54076 -1.994634,-0.96892 c -4.59657,-2.23284 -8.361804,-7.59028 -9.068122,-12.90276 -0.121856,-0.91652 -0.66034,-2.27417 -1.238378,-3.12224 -1.51345,-2.22046 -2.381782,-4.32986 -2.390516,-5.80717 -0.01021,-1.7276 0.83048,-2.22234 2.851558,-1.67812 0.794886,0.21404 1.480431,0.33904 1.523434,0.27778 0.043,-0.0613 0.367735,-0.90513 0.721628,-1.87527 0.353892,-0.97013 1.075054,-2.63701 1.602581,-3.70416 0.756403,-1.53015 0.996796,-2.6114 1.137284,-5.11528 0.09798,-1.74625 0.410431,-3.73063 0.694338,-4.40972 0.465397,-1.11322 0.454635,-1.37337 -0.109355,-2.64363 -1.959495,-4.4133 -0.509754,-9.924439 3.475363,-13.211475 3.998595,-3.298154 10.645023,-3.298154 14.643618,0 3.832847,3.161436 5.394347,8.664525 3.648047,12.856495 -0.38533,0.92497 -0.33895,1.28131 0.3681,2.82783 0.44494,0.97322 1.07753,2.87822 1.40575,4.23333 0.32823,1.35511 1.44683,4.21009 2.48578,6.34439 1.03896,2.13431 1.88704,4.09598 1.88462,4.35927 -0.003,0.32321 0.19616,0.3917 0.61298,0.21083 0.33955,-0.14734 1.13073,-0.34014 1.7582,-0.42845 0.98669,-0.13887 1.19051,-0.0299 1.50847,0.8064 0.47495,1.2492 -0.0271,4.03532 -1.25556,6.96754 -0.5059,1.20754 -1.20035,3.2274 -1.54321,4.48858 -1.20156,4.41975 -3.66722,8.04017 -7.09214,10.41364 -1.486,1.02979 -1.83429,2.19352 -0.89086,2.97651 0.28084,0.23307 0.77907,1.12672 1.10719,1.98589 0.69321,1.81515 0.50697,4.65816 -0.39536,6.03529 -0.31028,0.47354 -0.61981,1.54421 -0.68786,2.37925 -0.2581,3.16744 -2.784751,6.547 -5.979559,7.99808 -1.508645,0.68523 -3.374452,0.8826 -3.374452,0.35697 z m 2.17663,-8.87305 c 0.712078,-0.19778 1.664578,-0.67304 2.116667,-1.05613 0.754327,-0.63921 0.773614,-0.73426 0.234333,-1.15491 -0.487547,-0.38029 -1.103494,-0.33656 -3.615972,0.25668 -3.012857,0.7114 -3.644178,1.21858 -2.410964,1.93686 0.794912,0.46299 2.050476,0.46897 3.675936,0.0175 z m -0.545475,-6.69202 c 1.122338,0 1.611146,-0.17214 1.871798,-0.65918 0.501979,-0.93795 0.175623,-1.10471 -2.161969,-1.10471 -2.241317,0 -4.404988,0.71137 -4.728593,1.55467 -0.384081,1.0009 0.170332,1.21122 1.855739,0.70399 0.904202,-0.27213 2.327563,-0.49477 3.163025,-0.49477 z m 6.404236,-22.06862 c 1.75443,-1.22885 0.39698,-2.85608 -2.10286,-2.52078 -2.152786,0.28875 -3.088903,1.53913 -1.98142,2.64662 0.602686,0.60268 3.156505,0.524 4.08428,-0.12584 z m -19.243749,-2.07136 c 1.13651,-1.13651 1.165221,-1.22129 0.47625,-1.40629 -2.036858,-0.54695 -4.084559,0.0361 -4.084559,1.1631 0,0.59923 1.082449,1.37513 1.993195,1.42873 0.223132,0.0131 0.949933,-0.52036 1.615114,-1.18554 z m 14.03058,-3.90586 c 0,-0.29104 -0.238125,-0.52917 -0.529167,-0.52917 -0.291042,0 -0.529167,0.23813 -0.529167,0.52917 0,0.29104 0.238125,0.52917 0.529167,0.52917 0.291042,0 0.529167,-0.23813 0.529167,-0.52917 z m -11.641667,-0.70555 c 0,-0.29105 -0.15875,-0.52917 -0.352777,-0.52917 -0.194028,0 -0.352778,0.23812 -0.352778,0.52917 0,0.29104 0.15875,0.52916 0.352778,0.52916 0.194027,0 0.352777,-0.23812 0.352777,-0.52916 z m 10.65124,-11.47823 c 0.786446,-0.21843 1.39105,-0.64038 1.525768,-1.06484 0.350807,-1.1053 4.055088,-4.91944 4.777738,-4.91944 0.45174,0 0.76342,-0.40489 1.01837,-1.32291 1.45933,-5.254794 -1.68353,-11.118141 -6.860616,-12.799216 -2.105745,-0.683766 -5.441221,-0.524677 -7.491464,0.357315 -2.188279,0.941372 -4.40462,3.173201 -5.436546,5.474538 -0.962427,2.146346 -1.055017,5.994603 -0.193096,8.025553 2.109077,4.96964 7.566699,7.66356 12.659846,6.249 z"
         id="path3747"
         inkscape:connector-curvature="0" />
      <path
         style="fill:#858789;stroke-width:0.35277778"
         d="m 92.805955,166.20765 c 1.08e-4,-0.14552 1.033894,-1.18897 2.297302,-2.31878 1.263409,-1.12982 2.539927,-2.52377 2.836706,-3.09768 l 0.539598,-1.04347 -1.337595,0.56377 c -0.735678,0.31007 -2.379519,0.653 -3.65298,0.76207 -4.217905,0.36124 -6.976794,-1.55976 -6.570126,-4.57474 0.171086,-1.26841 0.06798,-1.63127 -0.688394,-2.42264 -1.288391,-1.34799 -1.487838,-3.43795 -0.489553,-5.12992 0.431676,-0.73164 1.088001,-1.54257 1.4585,-1.80208 0.62049,-0.43461 0.480836,-0.56829 -1.7702,-1.69443 -4.550219,-2.27639 -7.95198,-6.96868 -8.985903,-12.39492 -0.299753,-1.57317 -0.808635,-2.92471 -1.386429,-3.68224 -1.274988,-1.67159 -2.342528,-4.14789 -2.351707,-5.45508 -0.01108,-1.57802 0.708693,-2.03153 2.786762,-1.75586 l 1.731495,0.22969 0.430949,-1.33108 c 0.237022,-0.73209 0.941152,-2.37196 1.564733,-3.64415 0.937832,-1.91331 1.165491,-2.85835 1.317237,-5.46806 0.100899,-1.73524 0.430322,-3.74133 0.732051,-4.45798 0.51138,-1.2146 0.500068,-1.43 -0.166723,-3.175 -0.959648,-2.51141 -0.780094,-6.80326 0.378588,-9.049343 1.065213,-2.064895 3.359719,-4.293967 5.504659,-5.347681 2.513856,-1.234945 7.331866,-1.251659 9.804297,-0.03401 2.129277,1.048648 4.544068,3.377003 5.574908,5.375359 1.01405,1.965804 1.3198,6.506005 0.57819,8.585825 -0.46559,1.30574 -0.44254,1.52762 0.33527,3.22658 0.45939,1.00343 1.10122,3.07121 1.42629,4.59507 0.32508,1.52385 1.04163,3.51276 1.59234,4.4198 0.55071,0.90704 1.40777,2.65329 1.90457,3.88056 0.4968,1.22726 0.94627,2.27702 0.99881,2.3328 0.0525,0.0558 0.50122,-0.0834 0.99705,-0.30936 0.49584,-0.22592 1.33046,-0.3031 1.85472,-0.17152 0.94593,0.23741 0.95193,0.25857 0.78782,2.7788 -0.12324,1.8927 -0.49419,3.29671 -1.45634,5.5121 -0.71004,1.63489 -1.29098,3.25612 -1.29098,3.60273 0,2.55159 -3.36492,7.8257 -6.50581,10.19709 -2.25371,1.70158 -2.39967,2.31207 -1.02651,4.29353 1.38908,2.00445 1.50309,4.2756 0.34196,6.81185 -0.50794,1.10949 -0.92353,2.52252 -0.92353,3.14007 0,2.64536 -2.74053,6.26143 -5.797769,7.65002 -1.450878,0.65899 -3.374616,0.88836 -3.374256,0.40231 z m 4.120273,-1.55305 c 1.416441,-0.85712 3.367892,-3.0574 3.188782,-3.59539 -0.279589,-0.83978 -1.277883,-0.61519 -1.806128,0.40632 -0.294199,0.56892 -1.374943,1.79156 -2.401654,2.71698 -1.421537,1.28129 -1.656408,1.61918 -0.984803,1.41676 0.48507,-0.1462 1.386781,-0.5713 2.003803,-0.94467 z m -1.547453,-4.70461 c 2.406947,-0.62693 4.463115,-1.91901 5.760325,-3.61974 0.71932,-0.94308 0.86334,-1.38297 0.59368,-1.81337 -0.39933,-0.63738 -1.871466,-0.98622 -1.871466,-0.44347 0,0.78323 -2.020999,2.67289 -3.68975,3.44996 -2.574652,1.19891 -4.578294,1.12222 -5.83525,-0.22336 -1.660284,-1.77734 -3.165952,-1.13669 -2.280051,0.97014 0.265156,0.63059 0.529453,1.14892 0.587327,1.15184 0.05787,0.003 0.740224,0.23408 1.516335,0.51368 1.81709,0.65464 2.750691,0.6572 5.21885,0.0143 z m 0.597801,-3.09095 c 1.77788,-0.90669 2.102259,-1.47202 1.140088,-1.98696 -0.476946,-0.25525 -1.162152,-0.21117 -2.370559,0.15251 -0.934837,0.28134 -2.230098,0.51154 -2.878358,0.51154 -0.899816,0 -1.178655,0.15022 -1.178655,0.635 0,1.65376 2.703819,2.00553 5.287484,0.68791 z m 0.01117,-3.15586 c 3.307272,-1.54081 4.156884,-2.90467 2.396414,-3.84685 -0.568875,-0.30445 -0.895483,-0.16624 -1.878546,0.79496 -1.438727,1.40673 -2.959701,2.00001 -5.219042,2.03577 -1.472212,0.0233 -1.830513,-0.12089 -2.719842,-1.09458 -0.919919,-1.00718 -1.115553,-1.07983 -1.920392,-0.71312 -1.40458,0.63997 -0.985208,2.04853 0.978469,3.28643 1.606935,1.013 5.679119,0.78774 8.362939,-0.46261 z m -3.887538,-2.78541 c 0.679097,-0.16704 1.824449,-0.30749 2.545227,-0.31212 0.947134,-0.006 1.415981,-0.2055 1.690907,-0.7192 0.520298,-0.97219 -0.104102,-1.16687 -3.184331,-0.99282 -1.927272,0.1089 -2.631171,0.30396 -3.219322,0.89211 -0.890621,0.89062 -0.663655,2.09483 0.318409,1.68938 0.337914,-0.1395 1.170013,-0.39031 1.84911,-0.55735 z m 3.820326,-7.51989 c 5.429636,-1.95599 9.018706,-5.39399 10.448456,-10.00864 0.13697,-0.44211 1.32548,-1.89532 2.64112,-3.22936 2.41133,-2.44506 3.19843,-4.05473 3.19843,-6.54105 0,-2.06533 -2.49757,-1.25861 -5.11443,1.65197 -0.83586,0.92968 -1.62014,1.69032 -1.74285,1.69032 -0.35394,0 0.51827,-1.48104 1.61734,-2.7463 0.55363,-0.63734 1.0066,-1.55364 1.0066,-2.03622 0,-0.98027 -1.85175,-5.27613 -2.65861,-6.16771 -0.28646,-0.31653 -0.84572,-1.8319 -1.24281,-3.3675 -0.85484,-3.3058 -2.58548,-7.20171 -3.19914,-7.20171 -0.7237,0 -3.450801,3.18168 -4.284217,4.99835 -0.693296,1.51125 -1.315215,2.1921 -1.315215,1.43984 0,-0.14552 -1.468437,-0.26773 -3.263194,-0.27159 -3.812307,-0.008 -5.731182,-0.74591 -8.271652,-3.18011 l -1.522201,-1.45853 -0.320106,1.26449 c -0.176059,0.69547 -0.426459,2.49151 -0.556445,3.9912 -0.177434,2.04711 -0.528706,3.32204 -1.409369,5.11528 -1.062588,2.16368 -1.820198,4.4101 -2.46797,7.31788 -0.233555,1.0484 -0.233383,1.04853 0.512175,0.37381 0.821777,-0.7437 3.65867,-0.90436 4.789949,-0.27126 0.440733,0.24664 0.978663,0.2062 1.795226,-0.13498 2.5914,-1.08276 7.642433,-0.16667 9.929941,1.80097 l 0.945571,0.81334 1.004438,-0.84518 c 2.084487,-1.75398 6.298699,-0.76089 5.766659,1.35893 -0.3165,1.26103 -2.942763,2.28997 -4.568122,1.78974 l -1.130178,-0.34783 0.115029,2.35638 c 0.110503,2.26369 0.07193,2.39266 -0.980524,3.27824 -1.293304,1.08824 -3.023591,1.48117 -5.065877,1.15038 -1.139856,-0.18461 -5.488518,-0.70711 -7.355979,-0.88382 -0.129015,-0.0122 -0.883078,-0.83668 -1.675694,-1.83217 -1.1761,-1.47712 -1.441121,-2.08557 -1.441121,-3.30859 0,-1.33514 -0.116362,-1.54682 -1.066693,-1.94046 -0.586681,-0.24301 -1.207914,-0.69418 -1.380517,-1.00261 -0.57571,-1.02873 -0.848193,1.99025 -0.440092,4.87602 1.272996,9.00162 6.222349,13.14243 14.705357,12.30302 1.358195,-0.13439 3.156716,-0.49194 3.996715,-0.79454 z m -1.26529,-18.5908 c -1.071873,-0.39651 -1.399083,-1.91818 -0.601894,-2.79906 0.875753,-0.9677 2.142545,-0.87659 2.851267,0.20505 1.065511,1.62618 -0.374993,3.28739 -2.249373,2.59401 z m 1.087274,-1.95864 c 0.319028,-0.31902 -0.471599,-1.21797 -0.86006,-0.97789 -0.486389,0.3006 -0.367968,1.21002 0.157565,1.21002 0.258704,0 0.574826,-0.10446 0.702495,-0.23213 z m -13.016653,0.6677 c -1.365455,-0.93498 -0.268577,-3.18818 1.353811,-2.78099 1.078501,0.27069 1.514963,1.31776 0.972108,2.33209 -0.381442,0.71273 -1.597782,0.94748 -2.325919,0.4489 z m 1.438383,-1.4964 c 0.120763,-0.19539 -0.03547,-0.45313 -0.347172,-0.57275 -0.675446,-0.25919 -1.051884,0.0264 -0.727207,0.55177 0.292939,0.47399 0.788426,0.48366 1.074379,0.021 z m 10.293168,10.39984 c 2.635197,-1.72664 0.465351,-5.88165 -3.704603,-7.09389 -4.964316,-1.44316 -9.765105,0.82112 -9.765105,4.6057 0,2.4016 0.436377,2.67099 4.364724,2.69451 1.868013,0.0112 4.031387,0.15723 4.807498,0.32454 1.703381,0.36723 3.211083,0.18099 4.297486,-0.53086 z m -4.958652,-1.76583 c -0.121428,-0.31643 -0.220778,-1.0386 -0.220778,-1.60481 0,-0.791 0.161889,-1.02948 0.698834,-1.02948 1.202126,0 1.490937,2.87296 0.311643,3.10007 -0.312907,0.0603 -0.668271,-0.14934 -0.789699,-0.46578 z m -5.512445,-1.17999 c 0,-1.30262 0.683671,-2.41693 1.178987,-1.92161 0.291341,0.29134 0.30253,1.99002 0.01799,2.73151 -0.43178,1.1252 -1.196979,0.60746 -1.196979,-0.8099 z m 17.541241,-1.32595 c 0.63045,-0.86219 0.57347,-1.0898 -0.43897,-1.75317 -1.752003,-1.14796 -5.504843,0.17973 -4.907564,1.73621 0.507233,1.32183 4.383404,1.33412 5.346534,0.017 z m -24.793697,-4.29706 c 0.190867,-0.60137 0.0181,-0.73837 -1.188041,-0.94215 -1.760574,-0.29745 -2.142835,-0.068 -2.142835,1.2864 0,0.77082 0.368207,1.43523 1.308111,2.36043 l 1.308112,1.28764 0.245654,-1.64431 c 0.13511,-0.90437 0.34616,-1.96097 0.468999,-2.34801 z m 4.952382,2.61174 c 0.951227,-0.95122 1.090909,-1.24765 0.664944,-1.41111 -0.858504,-0.32944 -2.935352,-0.24011 -3.679728,0.15827 -1.344036,0.7193 -0.524001,2.41722 1.181479,2.4463 0.346016,0.006 1.171003,-0.53115 1.833305,-1.19346 z m 13.096101,-16.08595 c 0.604424,-0.2107 1.426613,-0.99394 2.007913,-1.91277 1.12667,-1.78088 3.538361,-4.08043 4.279431,-4.08043 0.8005,0 1.36505,-2.34191 1.18137,-4.900601 -0.28216,-3.930662 -2.36449,-7.044755 -5.851418,-8.750751 -2.63966,-1.291465 -6.436928,-1.359919 -8.915898,-0.160727 -2.025375,0.979766 -4.321061,3.225951 -5.23953,5.12655 -2.6563,5.496719 0.311599,12.543279 6.151828,14.606029 1.376136,0.48605 5.079631,0.52821 6.386304,0.0727 z"
         id="path3745"
         inkscape:connector-curvature="0" />
      <path
         style="fill:#7a7e81;stroke-width:0.35277778"
         d="m 95.071444,163.94987 c 2.483682,-2.27584 4.068908,-4.54616 2.797049,-4.00585 -6.025112,2.55957 -11.950975,0.50088 -10.814472,-3.75703 0.275172,-1.03094 0.248599,-1.36208 -0.120673,-1.50379 -0.742789,-0.28503 -1.885927,-2.39649 -1.887382,-3.48612 -0.0016,-1.2215 0.709844,-2.63124 1.879198,-3.72349 l 0.889221,-0.83059 -2.414503,-1.20793 c -4.415976,-2.20922 -7.868724,-6.94547 -8.83841,-12.12395 -0.282091,-1.50646 -0.896896,-3.04552 -1.792274,-4.48663 -1.631636,-2.62613 -2.402698,-5.1383 -1.848712,-6.02323 0.460249,-0.73518 1.94768,-0.95217 3.298675,-0.48122 0.916241,0.31941 1.022657,0.2685 1.236596,-0.59152 0.128745,-0.51756 0.867043,-2.29038 1.640662,-3.93962 1.232856,-2.62826 1.421446,-3.37127 1.526942,-6.01586 0.0662,-1.65949 0.361848,-3.59521 0.657,-4.30161 0.494023,-1.18236 0.4827,-1.42631 -0.142593,-3.07195 -2.111851,-5.55794 0.486561,-11.857888 5.945816,-14.415857 2.869191,-1.344377 6.802378,-1.34865 9.657546,-0.01049 2.359604,1.105898 4.52757,3.225597 5.64851,5.522747 1.04046,2.132232 1.29854,6.08766 0.54207,8.30779 -0.50656,1.48666 -0.4927,1.64989 0.27822,3.27699 0.44624,0.94183 1.0847,2.98241 1.41882,4.53463 0.33411,1.55222 1.03442,3.5366 1.55624,4.40972 0.52182,0.87313 1.41282,2.662 1.98,3.97528 0.7785,1.80257 1.1626,2.33183 1.56725,2.1595 1.178,-0.5017 2.15375,-0.55164 2.65471,-0.13587 1.05756,0.87769 0.38205,5.28463 -1.32318,8.63227 -0.39279,0.7711 -0.92362,2.40312 -1.17963,3.6267 -0.256,1.22357 -0.90931,3.04917 -1.45178,4.05689 -1.09211,2.02872 -4.43558,5.57509 -6.03674,6.40308 -0.85909,0.44425 -1.00053,0.69739 -0.84827,1.51807 0.1005,0.5417 0.46759,1.35202 0.81576,1.80071 1.56953,2.02265 1.6994,5.12214 0.31031,7.40631 -0.38249,0.62896 -0.69544,1.68502 -0.69544,2.34679 0,3.77579 -3.846129,7.96263 -7.516347,8.18217 l -1.737612,0.10394 z m 1.187952,1.14217 c 2.321143,-1.19641 5.247594,-5.11692 4.945574,-6.6255 -0.14484,-0.72348 -1.713681,0.84656 -3.228989,3.23146 -0.612303,0.96369 -1.800307,2.27338 -2.640008,2.91042 -1.690565,1.28256 -1.162813,1.55895 0.923423,0.48362 z m -0.09459,-5.3506 c 2.855326,-0.88192 5.518074,-3.26143 6.134674,-5.48212 0.52102,-1.87646 0.48068,-4.45342 -0.0817,-5.22259 -0.42417,-0.58008 -0.5148,-0.4994 -1.01398,0.90272 -0.30149,0.84685 -0.73111,2.20726 -0.95471,3.02314 -0.550651,2.0093 -1.943245,3.56695 -4.077483,4.56078 -2.930467,1.3646 -6.188028,0.8686 -6.188028,-0.94219 0,-0.43319 -0.325092,-0.76043 -0.898373,-0.90431 -1.141731,-0.28656 -1.288849,-0.12165 -1.288849,1.44467 0,3.03365 3.490746,4.12648 8.368489,2.6199 z m 6.71e-4,-2.83517 c 1.95485,-0.91889 2.088495,-1.11911 1.25218,-1.87596 -0.613852,-0.55553 -0.801458,-0.55903 -2.525155,-0.0471 -1.024105,0.30413 -2.371849,0.55297 -2.994971,0.55297 -1.30981,0 -1.795997,0.77315 -0.991859,1.57729 0.776738,0.77674 3.385249,0.67401 5.259821,-0.20715 z m -1.039561,-2.79058 c 2.75158,-0.94669 3.988584,-1.94958 4.949154,-4.01252 0.99866,-2.14473 1.15175,-4.28541 0.28262,-3.95189 -0.30907,0.1186 -0.925792,0.30695 -1.370505,0.41857 -0.604116,0.15162 -0.861373,0.53315 -1.017398,1.50888 -0.244845,1.53118 -1.877326,3.27378 -3.829794,4.08813 -1.893472,0.78975 -4.34092,0.71535 -5.214787,-0.15851 -0.881058,-0.88106 -0.879247,-1.09515 0.01893,-2.23699 0.957968,-1.21786 2.831327,-1.7375 5.727798,-1.58879 1.924811,0.0988 2.368364,0.0224 2.367148,-0.40756 -0.0013,-0.4429 -0.740398,-0.52895 -4.534203,-0.52786 -4.951938,0.001 -5.245968,0.10097 -6.193006,2.09671 -0.791043,1.667 -0.700093,2.79862 0.322618,4.01404 1.584082,1.88257 4.472881,2.14038 8.491445,0.75779 z m 3.861878,-0.0172 c 0.303313,-0.95566 0.1366,-1.08093 -0.661679,-0.49721 -0.358674,0.26226 -0.547493,0.64616 -0.419598,0.8531 0.3667,0.59333 0.828218,0.44143 1.081277,-0.35589 z m -5.652866,-2.44287 c 0.643132,-0.27636 0.627526,-0.30319 -0.176389,-0.30319 -0.485069,0 -1.199444,0.13644 -1.5875,0.30319 -0.643131,0.27636 -0.627525,0.30319 0.176389,0.30319 0.48507,0 1.199445,-0.13644 1.5875,-0.30319 z m -0.533596,-0.71181 c 0.870689,-0.14305 1.789414,-0.18091 2.041611,-0.0841 0.548011,0.21029 1.843374,-0.88017 1.843374,-1.55179 0,-0.35725 -0.68558,-0.47449 -2.774647,-0.47449 -2.272861,0 -2.942747,0.13223 -3.704166,0.73116 -0.511236,0.40214 -0.92952,1.05434 -0.92952,1.44935 0,0.61233 0.143008,0.67927 0.970139,0.45409 0.533576,-0.14525 1.68252,-0.38114 2.553209,-0.52419 z m 4.207201,-4.77081 c 5.272237,-1.24274 9.239587,-4.75786 11.512187,-10.19994 0.53266,-1.27554 0.53352,-1.35435 0.01,-0.91987 -0.88852,0.7374 -1.0629,0.17252 -0.28647,-0.92795 1.87375,-2.65582 3.96427,-8.2206 3.96427,-10.55261 0,-1.02183 -0.12166,-1.19757 -0.82902,-1.19757 -0.9956,0 -3.1522,1.50691 -4.72723,3.30313 -0.63059,0.71914 -1.14653,1.08624 -1.14653,0.81576 0,-0.27048 0.64763,-1.22752 1.43918,-2.12678 1.40017,-1.59067 1.42777,-1.67092 1.01801,-2.96008 -0.23164,-0.7288 -1.10416,-2.67446 -1.93893,-4.32369 -0.83476,-1.64924 -2.01389,-4.58612 -2.62028,-6.52639 -1.33635,-4.27593 -2.04719,-5.37393 -3.11062,-4.8048 -1.011215,0.54119 -3.128393,3.18323 -3.757605,4.68915 l -0.518549,1.24106 -3.457685,-0.0376 c -2.948756,-0.032 -3.750955,-0.17448 -5.450161,-0.96768 -1.095861,-0.51156 -2.632158,-1.56979 -3.413993,-2.35162 L 82.273588,106.904 81.9003,107.97481 c -0.205308,0.58895 -0.47523,2.36338 -0.599825,3.94316 -0.173624,2.20145 -0.499268,3.44914 -1.394186,5.34179 -0.993451,2.10104 -2.622769,7.09479 -2.622769,8.03861 0,0.16043 0.352823,0.0446 0.784051,-0.25749 0.840614,-0.58879 4.000767,-0.74787 4.799326,-0.2416 0.273533,0.17341 1.080013,0.0832 1.940278,-0.21706 2.10826,-0.73583 5.408291,-0.40502 7.843102,0.78622 1.076575,0.52672 2.132924,1.23871 2.347442,1.58221 0.362338,0.5802 0.443867,0.56195 1.148257,-0.25695 1.53082,-1.77968 6.184764,-1.32612 6.184764,0.60276 0,0.90127 -1.637,2.14084 -2.781602,2.10629 -0.976079,-0.0295 -0.817042,-0.13107 0.742942,-0.47463 0.52798,-0.11627 1.13594,-0.54024 1.35104,-0.94214 1.01467,-1.89594 -2.862635,-2.94032 -4.783137,-1.28838 -1.093401,0.94051 -0.919235,1.80857 0.474019,2.36256 l 0.939795,0.37368 -0.912596,-0.11809 c -0.889426,-0.11509 -0.908479,-0.0752 -0.750422,1.56969 0.146928,1.52911 0.05683,1.79312 -0.958399,2.80835 -1.111083,1.11108 -1.142075,1.11849 -3.6593,0.87505 -1.3963,-0.13504 -4.179255,-0.3542 -6.184345,-0.48703 -3.544272,-0.23478 -3.674216,-0.27352 -4.674306,-1.39358 -0.811209,-0.90853 -1.028687,-1.48554 -1.028687,-2.7293 0,-1.46906 -0.08466,-1.61257 -1.234722,-2.0931 -0.679097,-0.28374 -1.234722,-0.68275 -1.234722,-0.88667 0,-0.20393 -0.181835,-0.37078 -0.404077,-0.37078 -0.28978,0 -0.34688,0.97291 -0.201866,3.43958 0.323131,5.49648 1.940284,9.26142 5.271185,12.27203 4.114813,3.71914 9.4003,5.10385 14.706973,3.85299 z m -2.923698,-21.86371 c -0.763602,-0.7636 -0.724546,-1.6882 0.102946,-2.43707 1.47299,-1.33303 3.789182,0.45088 2.709765,2.08704 -0.598211,0.90676 -2.072513,1.09023 -2.812711,0.35003 z m 1.719538,-1.93906 c 0,-0.75618 -1.025055,-0.64696 -1.173734,0.12506 -0.09079,0.47145 0.05289,0.61513 0.524336,0.52434 0.357169,-0.0688 0.649398,-0.36101 0.649398,-0.6494 z m -13.158611,0.99261 c -0.54416,-0.54416 -0.54416,-1.78417 0,-2.32833 0.626658,-0.62666 1.500892,-0.51515 2.223797,0.28365 1.29913,1.43553 -0.853609,3.41487 -2.223797,2.04468 z m 1.535942,-1.37129 c 0.130364,-0.21094 0.09872,-0.52183 -0.07032,-0.69087 -0.417224,-0.41722 -1.335484,0.19012 -1.031383,0.68216 0.308167,0.49863 0.796534,0.50249 1.101707,0.009 z m 10.36088,11.11188 c 0.899465,-0.75686 1.0854,-1.17095 1.0854,-2.41728 0,-2.00981 -1.134413,-3.62638 -3.341972,-4.7624 -2.348066,-1.20832 -6.74361,-1.29888 -8.651274,-0.17822 -2.663684,1.56477 -3.587448,4.5214 -1.992126,6.37607 0.797771,0.92746 1.012494,0.97701 5.324612,1.22855 2.471325,0.14415 4.584326,0.35311 4.695557,0.46434 0.47888,0.47888 1.875443,0.13405 2.879803,-0.71106 z m -5.043822,-2.44963 c -0.401068,-1.04516 -0.229774,-2.30021 0.343993,-2.52038 0.742988,-0.28511 1.229009,0.50999 1.114634,1.82348 -0.101789,1.16894 -1.095331,1.64364 -1.458627,0.6969 z m -5.358189,-0.2717 c -0.378198,-0.98557 -0.0061,-2.5276 0.639494,-2.65003 0.491315,-0.0932 0.617362,0.13148 0.617362,1.10032 0,1.36751 -0.900637,2.478 -1.256856,1.54971 z m -7.90695,-3.17716 c 0.0046,-0.61914 0.154606,-1.75626 0.333283,-2.52692 0.178678,-0.77066 0.281407,-1.44467 0.228288,-1.49779 -0.05312,-0.0531 -0.838097,-0.19821 -1.744395,-0.32243 l -1.647814,-0.22586 v 1.15153 c 0,1.28459 1.987456,5.06309 2.497371,4.74794 0.178668,-0.11042 0.328638,-0.70733 0.333267,-1.32647 z m 5.557026,-0.73542 c 0.955346,-0.98343 1.05738,-1.22743 0.588509,-1.40735 -0.968429,-0.37162 -3.521828,-0.23923 -3.966729,0.20567 -0.614038,0.61404 -0.518986,1.60256 0.194028,2.01785 1.090586,0.63521 2.000936,0.40187 3.184192,-0.81617 z m 13.268306,-16.07375 c 0.488407,-0.18569 1.142722,-0.83017 1.454033,-1.43218 0.86424,-1.67126 3.0412,-3.92776 4.296162,-4.45315 0.96145,-0.40251 1.15913,-0.70342 1.36531,-2.07832 0.79678,-5.313346 -1.52072,-9.807674 -6.150517,-11.927704 -2.268542,-1.038786 -6.288645,-1.036825 -8.56247,0.0042 -2.093704,0.958539 -4.393152,3.256122 -5.359863,5.355513 -1.142494,2.481139 -1.045294,6.660891 0.211432,9.091971 1.120544,2.16763 3.6438,4.4823 5.668211,5.19963 1.691994,0.59954 5.76853,0.73781 7.077702,0.24006 z"
         id="path3743"
         inkscape:connector-curvature="0" />
      <path
         style="fill:#5a5d61;stroke-width:0.35277778"
         d="m 94.038866,164.9611 c 1.895451,-1.52591 3.290505,-3.03769 3.943009,-4.27293 0.509162,-0.96388 0.50276,-1.0059 -0.113382,-0.74415 -6.025112,2.55957 -11.950975,0.50088 -10.814472,-3.75703 0.275172,-1.03094 0.248599,-1.36208 -0.120673,-1.50379 -0.742789,-0.28503 -1.885927,-2.39649 -1.887382,-3.48612 -0.0017,-1.23028 0.711415,-2.63266 1.906102,-3.74877 l 0.916126,-0.85586 -2.083207,-0.99984 c -5.021331,-2.41001 -8.53408,-7.35103 -9.411483,-13.23815 -0.138462,-0.92905 -0.614798,-2.16657 -1.058524,-2.75006 -1.146444,-1.50756 -2.610043,-4.775 -2.614108,-5.83592 -0.0019,-0.49477 0.187054,-1.09008 0.419887,-1.32291 0.506712,-0.50671 2.020331,-0.5498 3.224956,-0.0918 0.771969,0.2935 0.899078,0.22268 1.108062,-0.61736 0.129834,-0.52189 0.869663,-2.29827 1.644064,-3.94751 1.206827,-2.57017 1.424514,-3.40185 1.523569,-5.82083 0.06356,-1.55222 0.369238,-3.55427 0.679278,-4.44898 0.524048,-1.51231 0.520458,-1.71087 -0.05103,-2.82222 -0.450373,-0.87584 -0.614735,-2.04437 -0.614735,-4.37047 0,-2.64669 0.142227,-3.46398 0.854749,-4.911693 1.141174,-2.318658 3.192076,-4.305082 5.619442,-5.442773 2.842315,-1.332176 6.788101,-1.331685 9.632013,0.0012 2.359604,1.105899 4.527573,3.225598 5.648513,5.522748 1.0458,2.143185 1.28462,5.953098 0.51283,8.181488 -0.51754,1.49431 -0.50841,1.67232 0.1562,3.04522 0.38823,0.80197 1.07639,2.95446 1.52925,4.78331 0.45286,1.82885 1.21212,3.951 1.68725,4.71589 0.47512,0.7649 1.31681,2.46903 1.87041,3.78696 0.71368,1.69904 1.15279,2.34012 1.50919,2.20336 1.35931,-0.52162 2.25685,-0.58269 2.73474,-0.18607 1.07561,0.89267 0.38393,5.23251 -1.40504,8.81564 -0.43592,0.87313 -0.89968,2.28303 -1.03056,3.13312 -0.5411,3.5145 -3.36288,7.78498 -6.63154,10.0362 -2.19252,1.51004 -2.30237,2.13531 -0.77147,4.39122 1.46243,2.155 1.50187,4.01369 0.14766,6.95752 -0.35703,0.77611 -0.72569,2.17057 -0.81926,3.0988 -0.24363,2.41679 -2.192759,5.22559 -4.5738,6.5911 -1.019651,0.58476 -2.171411,1.06314 -2.559467,1.06306 -0.401868,-7e-5 0.05684,-0.35516 1.065725,-0.82497 2.96711,-1.38169 5.431162,-4.50086 5.452922,-6.90268 l 0.008,-0.85525 -0.88413,0.83061 c -0.486278,0.45683 -1.359488,1.67287 -1.94047,2.70231 -0.982883,1.74158 -4.592764,5.07341 -5.465676,5.04469 -0.194027,-0.006 0.281496,-0.52222 1.056719,-1.14631 z m 3.095137,-5.47203 c 2.092623,-0.92567 4.121147,-2.78312 4.891607,-4.47908 0.74732,-1.64503 0.84629,-4.91033 0.18494,-6.10171 -0.42067,-0.75781 -0.4965,-0.65028 -1.24401,1.76389 -1.093635,3.53204 -1.772189,4.79861 -3.122657,5.82867 -3.167558,2.41601 -7.581325,2.41731 -7.924412,0.002 -0.07877,-0.55444 -0.389281,-0.82275 -1.039381,-0.89811 -0.746228,-0.0865 -0.972017,0.0717 -1.157554,0.8109 -0.324423,1.29261 0.4571,2.71155 1.908627,3.46533 1.548524,0.80415 5.233779,0.61151 7.50284,-0.39221 z m -0.968513,-2.5828 c 1.959374,-0.92101 2.089174,-1.11849 1.24018,-1.88682 -0.56134,-0.50801 -0.872069,-0.54668 -1.843765,-0.22947 -0.642755,0.20982 -2.028641,0.50353 -3.079746,0.65267 -2.063069,0.29275 -2.504288,0.74297 -1.607229,1.64003 0.808168,0.80817 3.378282,0.72247 5.29056,-0.17641 z m -0.781249,-2.79567 c 3.470256,-1.30747 5.535409,-3.89954 5.535409,-6.94775 v -1.44774 l -1.345349,0.52846 c -1.134712,0.44573 -1.408599,0.76496 -1.749345,2.03897 -0.850393,3.17953 -5.182581,5.29066 -8.369989,4.07881 -0.771439,-0.2933 -0.908697,-0.53941 -0.816715,-1.46442 0.190993,-1.92073 1.54751,-2.59275 5.233628,-2.59275 2.542777,0 3.158144,-0.10361 3.275264,-0.55148 0.124187,-0.47489 -0.253007,-0.53186 -2.715946,-0.41016 -1.573089,0.0777 -3.534883,-0.0144 -4.359543,-0.20479 -1.286293,-0.29692 -1.625712,-0.24673 -2.388298,0.35312 -2.143482,1.68606 -2.560244,4.49024 -0.903281,6.07771 1.787622,1.71265 4.96571,1.91285 8.604165,0.54202 z m 3.770574,0.0162 c 0.476346,-0.89006 -0.05705,-1.15661 -0.997011,-0.49824 -0.61344,0.42968 -0.675604,0.62396 -0.322074,1.0066 0.504894,0.54647 0.819434,0.42525 1.319085,-0.50836 z m -5.467112,-2.47122 c 0.601515,-0.25848 0.549495,-0.30319 -0.352778,-0.30319 -0.582083,0 -1.375833,0.13644 -1.763889,0.30319 -0.601515,0.25848 -0.549495,0.30319 0.352778,0.30319 0.582084,0 1.375833,-0.13644 1.763889,-0.30319 z m -2.803022,-0.36008 c 0.520892,-0.19804 1.761539,-0.37476 2.756993,-0.39271 1.829781,-0.033 3.04464,-0.6694 3.04464,-1.59494 0,-0.35557 -0.667514,-0.47449 -2.663352,-0.47449 -3.195879,0 -4.744981,0.6364 -4.744981,1.94933 0,0.96839 0.222045,1.03926 1.6067,0.51281 z m 5.488899,-4.93116 c 4.90241,-0.90903 9.40655,-4.3969 11.5923,-8.97673 1.20467,-2.52416 1.30162,-2.94593 0.52996,-2.30551 -1.01322,0.8409 -0.90639,0.0772 0.22336,-1.59682 1.55567,-2.30506 3.18202,-6.64514 3.4032,-9.08179 0.17353,-1.91172 0.13937,-2.02847 -0.59361,-2.02847 -1.40441,0 -3.73949,1.6288 -5.22928,3.64759 -0.43656,0.59158 -0.79375,0.85653 -0.79375,0.58879 0,-0.26774 0.6395,-1.24521 1.42111,-2.17215 1.70176,-2.0182 1.68544,-2.1775 -0.71773,-7.00312 -0.91795,-1.84326 -1.94698,-4.382 -2.28673,-5.64163 -0.83574,-3.09848 -2.13827,-5.96119 -2.83378,-6.22808 -0.78607,-0.30164 -3.071247,1.989 -4.271793,4.28201 l -0.951394,1.81714 -3.381926,-0.046 c -4.081013,-0.0554 -6.082189,-0.81191 -8.543668,-3.22959 -0.898681,-0.88269 -1.724129,-1.45901 -1.834328,-1.2807 -0.301171,0.4873 -0.935727,4.67259 -0.938764,6.19172 -0.0015,0.75633 -0.439206,2.20616 -1.011766,3.35139 -1.143079,2.2864 -2.338784,5.62996 -2.695598,7.53773 -0.292871,1.56589 0.46083,2.90773 1.918696,3.41595 0.885849,0.30881 1.114695,0.21198 2.181583,-0.92306 0.655556,-0.69743 1.1483,-1.40823 1.094985,-1.57955 -0.05331,-0.17132 0.04885,-0.22139 0.22702,-0.11127 0.178175,0.11012 1.015546,-0.0503 1.860824,-0.35642 2.948872,-1.06805 7.449461,-0.11365 9.727666,2.06284 0.983525,0.93962 1.166036,1.00431 1.365667,0.48408 0.837196,-2.1817 6.494926,-2.07231 6.494926,0.12557 0,0.75653 -1.58101,2.12901 -2.428827,2.10846 -0.313382,-0.008 -0.05141,-0.23908 0.582147,-0.51441 0.63357,-0.27533 1.24814,-0.75128 1.36571,-1.05767 0.35656,-0.92918 -0.88427,-1.94189 -2.379331,-1.94189 -3.091176,0 -4.547796,1.96894 -2.322593,3.13949 0.695281,0.36575 0.702093,0.39367 0.06762,0.27721 -0.633278,-0.11625 -0.705556,0.0625 -0.705556,1.74487 0,2.66678 -0.879131,3.49913 -3.625437,3.43251 -5.439091,-0.13193 -10.190289,-0.58818 -10.919304,-1.04855 -1.127013,-0.71171 -1.949113,-2.4996 -1.787175,-3.88672 0.111776,-0.95744 -0.0012,-1.22888 -0.584205,-1.40414 -0.397522,-0.1195 -1.15933,-0.62601 -1.692906,-1.12558 l -0.970139,-0.90831 0.0061,2.62364 c 0.01272,5.44671 1.511797,9.57705 4.699091,12.94714 2.228605,2.35642 4.29768,3.60035 7.289228,4.38229 2.669285,0.69771 4.794462,0.77979 7.448377,0.28769 z M 77.636315,125.6171 c 0,-0.70248 1.393682,-1.16638 3.098813,-1.03146 l 1.663687,0.13164 -1.736111,0.0636 c -1.043334,0.0382 -1.993547,0.29657 -2.38125,0.64743 -0.363706,0.32915 -0.645139,0.41151 -0.645139,0.1888 z m 16.402869,-1.47963 c -0.531325,-0.58711 -0.571023,-0.85797 -0.234117,-1.5974 0.51289,-1.12567 1.278726,-1.42386 2.374577,-0.92455 0.615142,0.28028 0.859448,0.67452 0.859448,1.38693 0,1.836 -1.762163,2.50271 -2.999908,1.13502 z m 1.765186,-1.76729 c 0,-0.75618 -1.025055,-0.64696 -1.173734,0.12506 -0.09079,0.47145 0.05289,0.61513 0.524336,0.52434 0.357169,-0.0688 0.649398,-0.36101 0.649398,-0.6494 z m -13.158611,0.99261 c -0.754012,-0.75401 -0.497442,-2.02747 0.500053,-2.48196 0.814971,-0.37133 1.00136,-0.32443 1.5875,0.39942 0.807458,0.99717 0.821122,1.24013 0.109748,1.95151 -0.66023,0.66023 -1.611382,0.71695 -2.197301,0.13103 z m 1.535942,-1.37129 c 0.363545,-0.58823 -0.454099,-1.26278 -0.940759,-0.77611 -0.407079,0.40707 -0.152302,1.15962 0.392595,1.15962 0.171126,0 0.417799,-0.17258 0.548164,-0.38351 z m 10.828919,10.93849 c 0.889198,-1.08797 0.803855,-3.47114 -0.176389,-4.92564 -1.898899,-2.81763 -7.579842,-4.06852 -10.845069,-2.38798 -3.106194,1.59869 -4.106476,4.70373 -2.146651,6.66356 0.979864,0.97986 1.186209,1.03221 4.145139,1.05152 1.712668,0.0112 3.748942,0.15861 4.525053,0.3276 2.015579,0.43889 3.776649,0.15345 4.497917,-0.72906 z m -5.304896,-2.15446 c -0.624823,-0.62482 -0.533545,-2.38484 0.137028,-2.64216 0.738871,-0.28353 1.229656,0.50867 1.114634,1.7992 -0.102545,1.15054 -0.605413,1.48921 -1.251662,0.84296 z m -5.565154,-0.39348 c -0.360548,-0.93958 -0.01326,-2.53898 0.5513,-2.53898 0.743263,0 0.897972,2.04697 0.198578,2.62742 -0.446625,0.37066 -0.579726,0.35497 -0.749878,-0.0884 z m -7.906742,-2.80356 c 0.0047,-0.6306 0.169,-1.84217 0.365016,-2.6924 0.196015,-0.85022 0.279351,-1.6229 0.185191,-1.71706 -0.09416,-0.0942 -0.916686,-0.25523 -1.827835,-0.35793 l -1.656634,-0.18673 0.176305,1.56418 c 0.176771,1.56831 1.747704,4.53646 2.40098,4.53646 0.191594,0 0.352234,-0.51593 0.356977,-1.14652 z m 18.785966,-17.16788 c 0.466871,-0.1775 1.343815,-1.09406 1.948764,-2.03679 1.327059,-2.06804 2.748136,-3.47159 3.989672,-3.94044 1.03705,-0.39163 1.37253,-1.4771 1.37253,-4.441011 0,-3.85191 -2.06821,-7.193766 -5.695455,-9.202858 -1.652735,-0.915431 -2.242607,-1.046445 -4.711491,-1.046445 -2.379503,0 -3.139,0.155558 -4.841609,0.991641 -4.75018,2.332624 -6.993042,7.769845 -5.329636,12.920283 0.924413,2.86228 3.956367,5.88994 6.736617,6.72709 1.33455,0.40184 5.50086,0.42004 6.530608,0.0285 z"
         id="path3741"
         inkscape:connector-curvature="0" />
      <path
         style="fill:#141920;stroke-width:0.35277778"
         d="m 95.161495,164.14275 c 2.148308,-2.05061 3.545695,-3.88112 3.215135,-4.21168 -0.09303,-0.093 -0.868597,0.0821 -1.723481,0.3892 -2.154646,0.774 -5.844639,0.7647 -7.495916,-0.0189 -1.690751,-0.80232 -2.114802,-1.64003 -1.909857,-3.77292 0.133184,-1.38608 0.04569,-1.79136 -0.443242,-2.05303 -0.335051,-0.17931 -0.882774,-0.90258 -1.217162,-1.60724 -0.814584,-1.71661 -0.470409,-3.36916 1.052852,-5.05522 l 1.20253,-1.33106 -2.181927,-1.02915 c -4.415381,-2.0826 -8.274981,-7.35171 -9.046325,-12.34999 -0.238637,-1.54636 -0.735685,-2.77385 -1.773286,-4.37922 -1.765191,-2.7311 -2.365498,-4.69853 -1.807376,-5.92348 0.343604,-0.75413 0.566152,-0.843 1.705276,-0.68096 0.720554,0.1025 1.563818,0.28912 1.87392,0.41471 0.439912,0.17816 0.734864,-0.24075 1.342109,-1.90618 0.428058,-1.17399 1.245901,-3.02347 1.817428,-4.10997 0.872733,-1.65909 1.039142,-2.38443 1.039142,-4.52938 0,-1.40467 0.230715,-3.32055 0.5127,-4.25752 0.474048,-1.57514 0.45792,-1.86527 -0.213924,-3.84842 -2.469364,-7.289082 3.015916,-14.792706 10.813723,-14.792706 7.560808,0 13.058376,7.163594 10.981166,14.308966 -0.55776,1.91861 -0.55172,2.00615 0.2659,3.8552 0.46014,1.04061 1.11284,3.13379 1.45044,4.65152 0.35365,1.5899 1.09985,3.56664 1.76052,4.66379 0.63068,1.04735 1.49943,2.8475 1.93057,4.00035 l 0.78388,2.09608 1.2114,-0.50616 c 1.73304,-0.72411 2.6064,-0.18731 2.6064,1.60197 0,1.45268 -1.13695,5.51343 -2.02899,7.24681 -0.29676,0.57664 -0.75426,1.96875 -1.01666,3.09356 -0.92942,3.9841 -3.63736,7.86343 -7.22405,10.349 -1.61195,1.11708 -1.63133,1.68533 -0.13282,3.89352 1.21361,1.78835 1.29069,4.62728 0.18562,6.83639 -0.34044,0.68057 -0.71825,1.99421 -0.83957,2.91918 -0.12132,0.92498 -0.47886,2.19498 -0.79454,2.82223 -0.72287,1.43634 -2.845982,3.68901 -4.094664,4.34452 -1.645193,0.86367 -1.549206,0.54489 0.162862,-0.54087 1.908935,-1.21061 3.982352,-4.1492 4.344492,-6.15732 l 0.24841,-1.37744 -1.29956,1.02466 c -0.714756,0.56357 -1.600656,1.65967 -1.968664,2.43578 -0.820475,1.73035 -1.446638,2.43915 -3.70992,4.19959 -1.665571,1.29552 -1.642414,1.25604 0.415459,-0.70824 z m 0.642875,-4.04819 c 4.96591,-1.32502 8.39201,-6.74355 6.7495,-10.67463 -0.55325,-1.32411 -1.28145,-1.48346 -1.28145,-0.28041 0,0.33952 -0.23307,0.92546 -0.51794,1.3021 -0.28487,0.37663 -0.523,1.14708 -0.52917,1.71212 -0.0185,1.6987 -1.530462,3.84265 -3.444456,4.88438 -3.28284,1.78675 -6.263884,1.60614 -6.665882,-0.40384 -0.151579,-0.7579 -0.452335,-1.07725 -1.137974,-1.20832 -2.244189,-0.429 -1.87728,3.34925 0.436076,4.4905 1.280493,0.63171 4.368729,0.71777 6.391296,0.1781 z m 0.537604,-3.15163 c 0.745141,-0.38014 1.469201,-0.87627 1.609022,-1.1025 0.423876,-0.68585 -0.957909,-1.43613 -2.146626,-1.16557 -0.582084,0.13249 -2.010834,0.42823 -3.175,0.65721 -1.707347,0.33582 -2.116667,0.54728 -2.116667,1.09352 0,1.63728 3.095517,1.912 5.829271,0.51734 z m -0.504403,-2.96321 c 3.610097,-1.65117 5.082079,-3.54542 5.082079,-6.53997 0,-0.97977 -0.06,-1.7814 -0.13331,-1.7814 -0.0733,0 -0.70207,0.23764 -1.397225,0.52809 -1.030529,0.43059 -1.338094,0.80357 -1.665606,2.01986 -0.552519,2.05189 -2.314955,3.63933 -4.579807,4.12505 -2.612453,0.56027 -4.571277,-0.0367 -4.571277,-1.39317 0,-0.91199 1.996163,-2.4643 3.113873,-2.4215 0.831272,0.0318 0.797704,0.0703 -0.283162,0.32452 -1.599723,0.37626 -2.603527,1.56774 -2.105223,2.49883 0.285418,0.53331 0.504375,0.60134 1.030021,0.32002 0.876898,-0.4693 1.390592,-0.45036 0.713936,0.0263 -0.389456,0.27436 -0.02083,0.33132 1.396196,0.21573 1.05895,-0.0864 1.984992,-0.33593 2.057871,-0.55457 0.07288,-0.21863 0.32973,-0.39752 0.570781,-0.39752 0.241051,0 0.807227,-0.39273 1.258169,-0.87273 0.944399,-1.00527 0.83177,-1.09588 -1.984513,-1.59642 l -1.711004,-0.30411 2.281905,0.0637 c 1.983595,0.0554 2.299522,-0.0235 2.416664,-0.60322 0.124298,-0.61517 -0.02925,-0.64838 -1.977936,-0.42792 -1.161982,0.13147 -3.169217,0.0703 -4.460522,-0.13604 -2.62144,-0.41878 -3.275492,-0.17765 -4.482159,1.65244 -0.715727,1.0855 -0.864362,3.29454 -0.293449,4.3613 1.201384,2.24481 5.836978,2.67038 9.723698,0.89269 z m -3.825562,-2.91057 c 0.242534,-0.0979 0.639409,-0.0979 0.881944,0 0.242535,0.0979 0.0441,0.17794 -0.440972,0.17794 -0.48507,0 -0.683507,-0.0801 -0.440972,-0.17794 z m 7.125747,3.26589 c 0.697315,-1.30295 0.156146,-1.74439 -1.047514,-0.85449 -0.94525,0.69886 -0.979227,0.79705 -0.422202,1.22019 0.833078,0.63284 0.951021,0.60349 1.469716,-0.3657 z m 1.257114,-9.17365 c 4.21613,-2.08373 7.63285,-6.12137 8.83378,-10.43915 l 0.2453,-0.88195 -0.96673,0.88195 c -0.84,0.76632 -0.78406,0.59762 0.42669,-1.28686 1.3415,-2.08798 2.94651,-6.31099 3.41952,-8.99722 0.16329,-0.92734 0.0745,-1.44056 -0.31688,-1.83196 -0.82067,-0.82067 -2.36379,-0.12727 -4.62096,2.07643 -2.3202,2.26524 -2.50108,2.17481 -0.31806,-0.15902 l 1.59177,-1.70173 -1.03746,-2.54933 c -0.5706,-1.40213 -1.41832,-3.12987 -1.88382,-3.83941 -0.4655,-0.70954 -1.14639,-2.45631 -1.51308,-3.88172 -0.82151,-3.19333 -2.60506,-6.89629 -3.39146,-7.04125 -0.78883,-0.1454 -3.287415,2.51074 -4.33012,4.60318 -0.463364,0.92985 -0.89632,1.54097 -0.962124,1.35805 -0.07477,-0.20785 -0.776938,-0.20877 -1.87211,-0.002 -3.412852,0.6429 -7.19423,-0.6074 -9.963416,-3.29438 l -1.485327,-1.44122 -0.402073,1.02987 c -0.22114,0.56643 -0.490163,2.37924 -0.597828,4.02848 -0.158495,2.42787 -0.413251,3.43506 -1.338465,5.29167 -1.449373,2.90842 -2.135858,4.95999 -2.652589,7.92728 -0.532024,3.05511 -0.24642,8.30745 0.58563,10.76994 1.528292,4.52303 5.759032,8.79798 10.115746,10.22145 1.785612,0.58341 2.908823,0.69675 5.973449,0.60276 3.53964,-0.10856 3.941362,-0.19831 6.460617,-1.44339 z M 89.983536,134.19211 c -1.31764,-0.28273 -3.123209,-0.40901 -4.244624,-0.29687 -2.688379,0.26886 -4.418331,-0.4762 -5.145245,-2.21595 -0.736779,-1.76336 -0.377597,-3.38942 1.113186,-5.03954 0.664646,-0.73568 1.092238,-1.46603 0.950204,-1.62301 -0.142033,-0.15697 -0.07428,-0.18015 0.150565,-0.0515 0.224843,0.12864 1.387012,-0.0167 2.582597,-0.32301 3.265433,-0.83657 7.007149,0.0627 9.267623,2.22743 0.533576,0.51097 0.972479,0.78027 0.975339,0.59845 0.0029,-0.18182 0.202792,0.0599 0.444293,0.53712 0.241501,0.47724 0.430258,1.71128 0.419461,2.74232 -0.03512,3.35387 -2.02698,4.40725 -6.513399,3.44457 z m 5.083918,-1.26083 c 1.516843,-1.80266 0.973673,-4.29111 -1.355773,-6.21123 -3.478772,-2.8675 -10.201955,-2.45427 -12.181508,0.74872 -1.026396,1.66074 -0.961166,3.86823 0.14705,4.97644 0.90557,0.90557 1.256222,0.97744 4.425758,0.9071 1.067153,-0.0237 2.495903,0.0999 3.175,0.27454 0.679097,0.17468 2.054048,0.33386 3.055446,0.35372 1.621316,0.0321 1.920749,-0.0828 2.734027,-1.04929 z m -5.45428,-2.47524 c -0.434193,-0.81129 -0.176841,-2.43658 0.385815,-2.43658 0.509889,0 1.098437,1.73865 0.851703,2.51604 -0.274717,0.86555 -0.748026,0.83517 -1.237518,-0.0795 z m -5.499589,-0.4971 c -0.254859,-0.66415 0.133841,-2.29226 0.547263,-2.29226 0.483872,0 0.756988,1.03057 0.52163,1.96831 -0.241479,0.96213 -0.763313,1.12028 -1.068893,0.32395 z m -6.124493,-2.82143 c -0.241543,-0.29104 -0.359794,-0.52916 -0.26278,-0.52916 0.09701,0 0.374015,0.23812 0.615558,0.52916 0.241543,0.29104 0.359794,0.52917 0.262781,0.52917 -0.09701,0 -0.374015,-0.23813 -0.615559,-0.52917 z m 21.806076,-1.47571 c 0.254662,-0.1019 0.558932,-0.0894 0.676162,0.0278 0.11722,0.11723 -0.0911,0.2006 -0.46303,0.18528 -0.410961,-0.0169 -0.494554,-0.10052 -0.213132,-0.21313 z m -5.507743,-1.24068 c -0.542325,-0.54232 -0.549376,-2.27935 -0.0106,-2.61233 0.273709,-0.16916 0.340185,-0.066 0.197358,0.30617 -0.284853,0.74231 0.489003,1.37712 1.165634,0.95619 0.445798,-0.27733 0.449303,-0.43152 0.02535,-1.11505 -0.484007,-0.78036 -0.478283,-0.78417 0.352777,-0.23492 0.966442,0.63871 1.272718,1.86592 0.652262,2.61353 -0.513697,0.61896 -1.803447,0.66574 -2.382774,0.0864 z m -11.447638,-1.01603 c -0.745317,-0.43411 -0.8048,-1.49368 -0.115949,-2.06538 0.411427,-0.34145 0.467354,-0.28589 0.311632,0.30959 -0.149699,0.57245 -0.02339,0.72571 0.598067,0.72571 0.621452,0 0.747765,-0.15327 0.59807,-0.7257 -0.120607,-0.4612 -0.03917,-0.67614 0.223438,-0.58973 0.583792,0.19211 0.724891,1.60929 0.22071,2.21679 -0.493154,0.59422 -0.978352,0.62823 -1.835968,0.12872 z m -5.923976,-0.0434 c 0.01316,-0.21838 -2.215266,-0.97954 -2.883056,-0.98475 -0.138695,-0.001 -0.426253,0.32331 -0.639019,0.72086 -0.49204,0.91939 -0.02482,2.41706 1.490977,4.77936 l 1.109918,1.72976 0.453116,-2.99861 c 0.249213,-1.64924 0.459842,-3.11022 0.468064,-3.24662 z m 17.228512,-12.64578 c 1.487658,-0.31905 1.835948,-0.56568 2.52157,-1.78558 1.124291,-2.00041 3.306377,-4.19425 4.171777,-4.19425 1.70942,0 2.21031,-5.488961 0.7974,-8.738342 -1.05,-2.414779 -3.954068,-5.102856 -6.385278,-5.910374 -2.482588,-0.824583 -5.956428,-0.594015 -8.219378,0.545544 -2.259199,1.13767 -4.605274,3.785797 -5.355762,6.045306 -0.737654,2.220869 -0.561198,6.250396 0.352861,8.057866 0.786891,1.55601 3.216946,4.1156 4.604635,4.85009 2.67413,1.41539 4.735054,1.72532 7.512175,1.12974 z"
         id="path3739"
         inkscape:connector-curvature="0" />
    </g>
  </g>
</svg>
